<?xml version="1.0" standalone="no"?>
<!DOCTYPE svg PUBLIC "-//W3C//DTD SVG 20010904//EN"
 "http://www.w3.org/TR/2001/REC-SVG-20010904/DTD/svg10.dtd">
<svg version="1.0" xmlns="http://www.w3.org/2000/svg"
 width="96.000000pt" height="96.000000pt" viewBox="0 0 96.000000 96.000000"
 preserveAspectRatio="xMidYMid meet">
<metadata>
Created by potrace 1.11, written by Peter Selinger 2001-2013
</metadata>
<g transform="translate(0.000000,96.000000) scale(0.100000,-0.100000)"
fill="#000000" stroke="none">
<path d="M0 851 l0 -108 98 -8 c53 -4 111 -8 127 -9 32 -1 54 -31 35 -50 -16
-16 -13 -151 5 -166 8 -7 20 -31 26 -53 14 -51 62 -149 82 -165 29 -25 6 -48
-95 -98 -107 -53 -132 -76 -154 -150 l-13 -44 424 0 425 0 0 81 c0 66 -3 85
-17 96 -10 8 -13 12 -6 9 6 -4 14 -2 18 3 3 6 -4 8 -15 6 -28 -5 -173 90 -196
129 -40 67 -84 88 -76 36 4 -25 -9 -46 -81 -138 -46 -60 -92 -121 -102 -136
-20 -30 -25 -27 -45 23 -13 31 -12 35 9 52 12 10 21 21 21 24 -1 4 33 38 74
77 87 80 106 110 106 167 0 49 8 71 26 71 7 0 19 9 27 20 12 18 15 18 35 4 12
-8 22 -22 22 -30 0 -8 4 -14 9 -14 5 0 12 -8 16 -19 4 -14 15 -18 43 -17 34 1
37 -1 37 -26 0 -30 15 -51 16 -22 0 10 14 -19 31 -65 25 -69 28 -85 17 -93
-11 -8 -10 -8 4 -4 10 3 21 6 23 6 2 0 4 162 4 360 l0 360 -480 0 -480 0 0
-109z m680 -262 c0 -5 -4 -9 -10 -9 -5 0 -10 7 -10 16 0 8 5 12 10 9 6 -3 10
-10 10 -16z m-260 -414 c0 -8 -4 -15 -10 -15 -5 0 -7 7 -4 15 4 8 8 15 10 15
2 0 4 -7 4 -15z"/>
</g>
</svg>
